<?xml version="1.0" ?><svg id="Layer_3" style="enable-background:new 0 0 64 64;" version="1.1" viewBox="0 0 64 64" xml:space="preserve" xmlns="http://www.w3.org/2000/svg" xmlns:xlink="http://www.w3.org/1999/xlink"><g><path d="M27,16c0-8.271-5.832-15-13-15S1,7.729,1,16c0,4.308,1.591,8.187,4.12,10.925l4.891,15.378   C10.143,42.718,10.528,43,10.964,43H11v19c0,0.552,0.448,1,1,1h4c0.552,0,1-0.448,1-1V43h0.07c0.436,0,0.821-0.282,0.953-0.697   l4.908-15.433C25.431,24.135,27,20.279,27,16z M23,23.451V8.549c1.256,2.112,2,4.679,2,7.451S24.256,21.339,23,23.451z M21.019,6   H21v20h0.019c-0.618,0.607-1.297,1.128-2.019,1.565V4.435C19.721,4.872,20.401,5.393,21.019,6z M13,28.94   c-0.688-0.074-1.355-0.227-2-0.444V3.504c0.645-0.217,1.312-0.37,2-0.444V28.94z M15,3.06c0.688,0.074,1.355,0.227,2,0.444v24.992   c-0.645,0.217-1.312,0.37-2,0.444V3.06z M9,4.435v23.13c-0.714-0.433-1.387-0.946-2-1.545V6H6.981C7.599,5.393,8.279,4.872,9,4.435   z M5,8.549v14.902C3.744,21.339,3,18.772,3,16S3.744,10.661,5,8.549z M13,61v-6h2v6H13z M15,53h-2V43h2V53z M16.339,41H16h-4   h-0.305L7.966,29.275C9.771,30.372,11.822,31,14,31c2.194,0,4.26-0.636,6.075-1.748L16.339,41z"/><path d="M46.252,4.478l-1.213,4.248c-0.104,0.363,0.006,0.754,0.283,1.01c0.278,0.256,0.677,0.334,1.029,0.202l5.616-2.106   l-1.861,3.722c-0.247,0.494-0.047,1.095,0.447,1.342L54.764,15l-4.211,2.105c-0.249,0.125-0.435,0.348-0.513,0.615   c-0.078,0.268-0.041,0.556,0.103,0.794l1.758,2.93l-5.658-1.415c-0.35-0.086-0.713,0.018-0.961,0.275   c-0.249,0.257-0.341,0.626-0.243,0.97l1.213,4.248L42.581,22.9l-1.162,1.628l6,4.286C47.593,28.938,47.796,29,48,29   c0.202,0,0.404-0.061,0.577-0.183c0.347-0.245,0.501-0.683,0.385-1.092l-1.524-5.335l6.32,1.58c0.394,0.097,0.805-0.05,1.046-0.375   c0.241-0.325,0.262-0.763,0.054-1.11l-2.444-4.074l5.034-2.517C57.786,15.725,58,15.379,58,15s-0.214-0.725-0.553-0.895   l-5.105-2.553l2.553-5.105c0.184-0.368,0.124-0.811-0.151-1.116c-0.275-0.305-0.709-0.41-1.094-0.268l-6.143,2.304l1.455-5.092   c0.117-0.409-0.038-0.847-0.385-1.092s-0.812-0.244-1.158,0.003l-6,4.286L42.581,7.1L46.252,4.478z"/><path d="M38,22c3.86,0,7-3.14,7-7s-3.14-7-7-7s-7,3.14-7,7S34.14,22,38,22z M38,10c2.757,0,5,2.243,5,5s-2.243,5-5,5s-5-2.243-5-5   S35.243,10,38,10z"/><path d="M56,49c-1.655,0-3.244,0.596-4.498,1.648C50.284,49.621,48.714,49,47,49v-9c0-0.552-0.448-1-1-1h-1.08   c-0.488-3.387-3.401-6-6.92-6c-0.089,0-0.175,0.01-0.263,0.013C36.435,31.147,34.294,30,32,30c-3.86,0-7,3.14-7,7   c0,0.681,0.109,1.353,0.302,2H24c-0.552,0-1,0.448-1,1v18c0,2.757,2.243,5,5,5h13v-2H28c-1.654,0-3-1.346-3-3V41h20v8.295   c-2.888,0.863-5,3.541-5,6.705c0,3.86,3.14,7,7,7c1.714,0,3.284-0.621,4.502-1.648C52.756,62.404,54.345,63,56,63   c3.86,0,7-3.14,7-7S59.86,49,56,49z M42.899,39h-9.798c0.465-2.279,2.484-4,4.899-4S42.434,36.721,42.899,39z M27,37   c0-2.757,2.243-5,5-5c1.334,0,2.602,0.539,3.528,1.459c-2.341,0.888-4.082,2.992-4.449,5.541h-3.658C27.148,38.373,27,37.692,27,37   z M47,61c-2.757,0-5-2.243-5-5s2.243-5,5-5s5,2.243,5,5S49.757,61,47,61z M56,61c-1.162,0-2.278-0.412-3.166-1.139   C53.569,58.753,54,57.426,54,56s-0.431-2.753-1.166-3.861C53.722,51.412,54.838,51,56,51c2.757,0,5,2.243,5,5S58.757,61,56,61z"/></g></svg>