<?xml version="1.0" encoding="iso-8859-1"?>
<!-- Generator: Adobe Illustrator 19.1.0, SVG Export Plug-In . SVG Version: 6.00 Build 0)  -->
<svg version="1.1" id="Capa_1" xmlns="http://www.w3.org/2000/svg" xmlns:xlink="http://www.w3.org/1999/xlink" x="0px" y="0px"
	 viewBox="0 0 289.588 289.588" style="enable-background:new 0 0 289.588 289.588;" xml:space="preserve">
<g>
	<g>
		<path d="M279.175,195.498c-6.036-7.244-18.712-9.054-25.352-9.658c-12.676-0.604-28.37,1.811-35.614,9.054
			c-5.433,5.433-7.847,13.28-9.658,21.127c-42.254-3.622-85.111-3.622-127.364,0c-1.811-8.451-4.225-16.298-8.451-21.127
			c-6.036-7.244-18.712-9.054-25.352-9.658c-12.676-0.604-28.37,1.811-35.614,9.054c-15.694,15.694-15.694,68.209,0,83.903
			c6.64,6.64,19.919,9.054,31.388,9.054c1.207,0,2.414,0,4.225,0c7.244-0.604,19.919-1.811,25.352-9.658l0,0
			c4.225-4.829,6.64-12.072,8.451-21.127c21.73,1.811,43.461,3.018,64.588,3.018c21.127,0,41.65-0.604,62.777-2.414
			c1.811,7.847,4.829,15.694,9.658,21.127c6.64,6.64,19.92,9.054,31.388,9.054c1.207,0,2.414,0,4.225,0
			c7.243-0.604,19.92-1.811,25.352-9.658l0,0C293.059,261.897,293.059,213.003,279.175,195.498z M46.177,276.384
			c-12.072,0.604-23.541-2.414-26.559-5.433c-10.865-10.865-10.865-56.137,0-67.002c3.018-3.018,12.072-5.433,22.938-5.433
			c1.207,0,2.414,0,3.622,0c9.054,0.604,15.091,3.018,16.901,4.829c3.622,4.225,5.433,12.676,6.64,21.73
			c0,1.207,0,2.414,0.604,3.622c0,1.207,0,1.811,0,3.018c0,0.604,0,1.207,0,1.811c0,2.414,0,4.829,0,7.847c0,0.604,0,1.207,0,1.811
			c0,1.207,0,1.811,0,3.018c0,1.207,0,2.414-0.604,3.622c-1.207,9.054-3.018,17.505-6.64,21.73
			C61.268,273.366,55.835,275.78,46.177,276.384z M82.395,246.203c0.604-6.036,0.604-11.469,0-17.505
			c41.046-3.622,82.696-3.622,124.346,0c-0.604,3.622-0.604,7.244-0.604,9.054s0,4.829,0.604,9.054
			C165.694,249.221,124.044,249.221,82.395,246.203z M269.517,270.951c-1.811,1.811-7.847,4.225-16.901,4.829
			c-12.072,0.604-23.541-2.414-26.559-5.433c-3.622-3.622-6.036-10.865-7.243-19.919l0,0c-1.207-8.451-1.207-18.109,0-27.163l0,0
			c1.207-9.054,3.622-16.298,7.243-19.919c3.018-3.018,12.072-5.433,22.938-5.433c1.207,0,2.414,0,3.622,0
			c9.054,0.604,15.091,3.018,16.901,4.829C279.779,215.418,279.779,258.879,269.517,270.951z"/>
		<path d="M28.069,160.488c3.622,1.811,8.451,3.018,13.883,3.018c7.244,0,15.694-1.811,22.938-4.225
			c6.64-2.414,18.109-7.244,21.73-16.298c2.414-6.036,3.018-13.883,2.414-22.334c41.65-8.451,82.696-19.919,122.535-35.01
			c3.622,7.244,9.054,13.883,15.091,17.505c3.622,1.811,8.451,3.018,13.883,3.018c7.243,0,15.694-1.811,22.938-4.225
			c6.64-2.414,18.109-7.244,21.73-16.298c8.451-20.523-4.829-67.606-22.938-79.678c-7.847-5.433-20.523-3.622-27.163-1.811
			c-12.072,3.018-26.559,9.658-31.388,18.109c-3.622,6.64-4.225,15.091-3.622,22.938c-41.65,8.451-82.696,19.919-122.535,35.614
			c-4.225-7.847-8.451-13.883-13.883-17.505c-7.847-5.433-20.523-3.622-27.163-1.811C24.447,64.512,9.96,71.152,4.527,79.603
			c-7.244,13.28-1.811,36.821,0,43.461C7.545,129.704,14.789,152.641,28.069,160.488z M213.984,28.295
			c2.414-3.622,12.072-9.658,24.145-12.676c4.225-1.207,7.847-1.207,10.262-1.207c3.622,0,6.036,0.604,7.243,1.207
			c13.28,9.054,24.749,50.704,18.712,65.191c-1.207,2.414-6.036,6.64-14.487,9.658c-11.469,4.225-22.938,4.225-26.559,1.811
			c-4.225-2.414-8.451-8.451-12.676-16.901l0,0c-3.622-7.847-6.036-17.505-7.243-25.956l0,0
			C211.57,40.368,212.173,32.52,213.984,28.295z M201.912,57.269c0.604,3.622,1.811,6.64,1.811,8.451
			c0.604,1.811,1.207,4.829,3.018,8.451c-38.632,14.487-78.471,25.956-119.517,33.803c-1.207-5.433-3.018-11.469-4.829-16.901
			C121.026,77.189,161.469,65.72,201.912,57.269z M15.392,85.036c2.414-3.622,12.072-9.658,24.145-12.676
			c4.225-1.207,7.847-1.207,10.262-1.207c3.622,0,6.036,0.604,7.244,1.207c4.225,3.018,9.054,10.262,12.072,18.712
			c0.604,1.207,1.207,3.018,1.811,4.225c0,0.604,0.604,1.207,0.604,2.414c0.604,1.207,0.604,1.811,1.207,3.018
			c0.604,1.811,1.207,3.018,1.207,4.829c0,1.207,0.604,1.811,0.604,3.018c0,0.604,0.604,1.811,0.604,2.414
			c0.604,1.811,0.604,3.018,0.604,4.829c1.207,9.054,1.207,16.901-0.604,22.334c-1.207,2.414-6.036,6.64-14.487,9.658
			c-11.469,4.225-22.938,4.225-26.559,1.811c-6.036-3.622-13.28-15.694-16.901-30.181C12.978,105.559,12.374,91.675,15.392,85.036z"
			/>
	</g>
</g>
<g>
</g>
<g>
</g>
<g>
</g>
<g>
</g>
<g>
</g>
<g>
</g>
<g>
</g>
<g>
</g>
<g>
</g>
<g>
</g>
<g>
</g>
<g>
</g>
<g>
</g>
<g>
</g>
<g>
</g>
</svg>
