<?xml version="1.0" encoding="iso-8859-1"?>
<!-- Generator: Adobe Illustrator 19.1.0, SVG Export Plug-In . SVG Version: 6.00 Build 0)  -->
<svg version="1.1" id="Capa_1" xmlns="http://www.w3.org/2000/svg" xmlns:xlink="http://www.w3.org/1999/xlink" x="0px" y="0px"
	 viewBox="0 0 391.199 391.199" style="enable-background:new 0 0 391.199 391.199;" xml:space="preserve">
<g>
	<g>
	</g>
	<g>
	</g>
	<g>
	</g>
	<g>
	</g>
	<g>
	</g>
	<g>
	</g>
	<g>
	</g>
	<g>
	</g>
	<g>
	</g>
	<g>
	</g>
	<g>
	</g>
	<g>
	</g>
	<g>
	</g>
	<g>
	</g>
	<g>
	</g>
</g>
<g>
	<path style="fill:#231F20;" d="M288.714,376.199h-10.08c2.442-1,3.846-3.099,3.846-5.934V226.491
		c0-17.345-9.224-32.58-22.966-41.128c0.006-0.119-0.034-0.236-0.034-0.357v-67.425c0-3.817-2.687-7.382-6.504-7.382h-9.496V6.918
		c0-2.46-1.369-4.734-3.495-5.971c-2.126-1.242-4.776-1.266-6.916-0.048l-87.924,49.606c-2.169,1.228-3.664,3.526-3.664,6.019
		v53.675h-6.428c-3.817,0-6.572,3.565-6.572,7.382v67.425c0,0.043-0.36,0.084-0.359,0.127
		c-13.946,8.506-23.641,23.863-23.641,41.358V370.27c0,2.834,2.098,4.93,4.539,5.93h-6.534c-4.094,0-7.409,3.411-7.409,7.5
		c0,4.094,3.315,7.5,7.409,7.5h186.224c4.094,0,7.409-3.406,7.414-7.5C296.123,379.605,292.808,376.199,288.714,376.199z
		 M155.48,60.556l74-41.791v91.434h-48V69.762c0-3.817-3.183-6.913-7-6.913s-7,3.096-7,6.913v40.437h-12V60.556z M141.48,178.199
		v-54h105v54h-11.719c-0.126,0-0.251,0-0.378,0h-81.107c-0.127,0-0.251,0-0.378,0H141.48z M118.48,226.491
		c0-18.944,15.523-34.292,34.419-34.292h81.862c18.892,0,33.719,15.348,33.719,34.292v136.708h-150V226.491z"/>
	<path style="fill:#231F20;" d="M255.794,334.199H130.79c-3.817,0-6.913,3.183-6.913,7c0,3.817,3.096,7,6.913,7h125.004
		c3.817,0,6.913-3.183,6.913-7C262.707,337.382,259.611,334.199,255.794,334.199z"/>
</g>
<g>
</g>
<g>
</g>
<g>
</g>
<g>
</g>
<g>
</g>
<g>
</g>
<g>
</g>
<g>
</g>
<g>
</g>
<g>
</g>
<g>
</g>
<g>
</g>
<g>
</g>
<g>
</g>
<g>
</g>
</svg>
