<?xml version="1.0" encoding="iso-8859-1"?>
<!-- Generator: Adobe Illustrator 19.1.0, SVG Export Plug-In . SVG Version: 6.00 Build 0)  -->
<svg version="1.1" id="Capa_1" xmlns="http://www.w3.org/2000/svg" xmlns:xlink="http://www.w3.org/1999/xlink" x="0px" y="0px"
	 viewBox="0 0 311.752 311.752" style="enable-background:new 0 0 311.752 311.752;" xml:space="preserve">
<g>
	<g>
	</g>
	<g>
	</g>
	<g>
	</g>
	<g>
	</g>
	<g>
	</g>
	<g>
	</g>
	<g>
	</g>
	<g>
	</g>
	<g>
	</g>
	<g>
	</g>
	<g>
	</g>
	<g>
	</g>
	<g>
	</g>
	<g>
	</g>
	<g>
	</g>
</g>
<g>
	<path style="fill:#231F20;" d="M209.606,74.329L240.248,49.5c3.225-2.613,3.956-7.242,1.682-10.72L218.99,3.673
		C217.494,1.39,214.948,0,212.211,0H100.21c-2.905,0-5.585,1.566-7.032,4.084L69.565,45.402c-2.088,3.659-1.022,8.315,2.451,10.698
		l28.036,19.247C59.184,95.871,31.061,138.17,31.061,186.934c0,68.825,55.988,124.818,124.813,124.818
		s124.818-55.993,124.818-124.818C280.692,137.345,251.603,94.449,209.606,74.329z M153.695,112.172
		c1.381,0.946,2.986,1.419,4.581,1.419c1.81,0,3.616-0.602,5.097-1.801l12.082-9.79c38.568,8.91,67.41,43.515,67.41,84.748
		c0,47.968-39.02,86.997-86.992,86.997c-47.972,0-86.992-39.025-86.992-86.997c0-41.958,29.885-76.979,69.476-85.105
		L153.695,112.172z M104.906,16H207.83l16.548,25.416l-66.498,53.93L87.326,46.835L104.906,16z M155.874,295.553
		c-59.891,0-108.618-48.722-108.618-108.618c0-45.703,28.403-84.832,68.459-100.835l9.378,6.438
		c-39.648,12.983-68.378,50.284-68.378,94.211c0,54.675,44.48,99.155,99.16,99.155s99.16-44.48,99.16-99.155
		c0-43.808-28.591-80.998-68.069-94.074l8.43-6.831c40.395,15.841,69.102,55.141,69.102,101.086
		C264.497,246.826,215.765,295.553,155.874,295.553z"/>
	<path style="fill:#231F20;" d="M206.029,46c0-2.981-2.412-5-5.398-5h-90.408c-2.986,0-5.398,2.019-5.398,5s2.412,5,5.398,5h90.408
		C203.612,51,206.024,48.981,206.029,46z"/>
</g>
<g>
</g>
<g>
</g>
<g>
</g>
<g>
</g>
<g>
</g>
<g>
</g>
<g>
</g>
<g>
</g>
<g>
</g>
<g>
</g>
<g>
</g>
<g>
</g>
<g>
</g>
<g>
</g>
<g>
</g>
</svg>
