<?xml version="1.0" encoding="iso-8859-1"?>
<!-- Generator: Adobe Illustrator 19.0.0, SVG Export Plug-In . SVG Version: 6.00 Build 0)  -->
<svg version="1.1" id="Capa_1" xmlns="http://www.w3.org/2000/svg" xmlns:xlink="http://www.w3.org/1999/xlink" x="0px" y="0px"
	 viewBox="0 0 487.52 487.52" style="enable-background:new 0 0 487.52 487.52;" xml:space="preserve">
<g>
	<path d="M108.119,364.554C88.304,375.044,74.9,395.732,74.9,419.626c0,34.092,27.973,62.066,62.066,62.066
		s62.066-27.973,62.066-62.066c0-3.205-0.291-6.411-0.874-9.324c14.569,3.205,30.013,5.245,45.748,5.245
		c15.735,0,30.887-1.748,45.748-5.245c-1.166,4.954-2.04,9.907-2.04,15.152c0,34.092,27.973,62.066,62.066,62.066
		s62.066-27.973,62.066-62.066c0-25.351-15.152-47.205-37.006-56.821c46.913-38.172,76.635-96.158,76.635-161.138
		c0-53.907-20.397-105.191-57.695-143.946C356.381,24.504,305.971,2.067,252.356,0.028c-4.662-0.291-9.324,1.748-12.821,4.954
		c-3.497,3.205-5.245,7.867-5.245,12.53v172.502H53.629c-9.616,0-17.483,7.867-17.483,17.483
		C36.146,270.144,64.119,326.382,108.119,364.554z M136.966,446.434c-14.861,0-27.099-12.238-27.099-27.099
		c0-14.861,12.238-27.099,27.099-27.099s27.099,12.238,27.099,27.099C164.065,434.196,151.827,446.434,136.966,446.434z
		 M349.679,452.262c-14.861,0-27.099-12.238-27.099-27.099c0-14.861,12.238-27.099,27.099-27.099
		c14.861,0,27.099,12.238,27.099,27.099C376.778,440.023,364.54,452.262,349.679,452.262z M268.965,36.743
		c37.88,5.245,72.556,23.02,99.363,50.993c26.808,28.265,43.417,63.814,47.205,102.277H268.965V36.743z M251.482,224.979h164.051
		c-8.742,87.125-82.463,155.018-171.627,155.018S81.02,311.813,72.278,224.979H251.482z"/>
</g>
<g>
</g>
<g>
</g>
<g>
</g>
<g>
</g>
<g>
</g>
<g>
</g>
<g>
</g>
<g>
</g>
<g>
</g>
<g>
</g>
<g>
</g>
<g>
</g>
<g>
</g>
<g>
</g>
<g>
</g>
</svg>
